<svg width="34" height="40" viewBox="0 0 34 40" fill="none" xmlns="http://www.w3.org/2000/svg">
<g clip-path="url(#clip0_19_75)">
<path opacity="0.3" d="M27.4747 9.21029L6.7955 5.62466C6.3351 5.54481 5.89546 5.84763 5.8144 6.30023L5.00293 10.8257H22.7104C23.1782 10.8257 23.5574 11.1986 23.5574 11.6585V35.8527L28.1617 10.1751C28.2429 9.72232 27.9351 9.29 27.4747 9.21029Z" fill="#2A1449"/>
<path opacity="0.6" d="M32.4832 7.96497L12.7514 0.902648C12.3122 0.745493 11.8256 0.96846 11.6658 1.40035L9.90283 6.1635L27.4747 9.21029C27.9351 9.29014 28.2429 9.72246 28.1617 10.1751L24.0226 33.2587L32.9893 9.03229C33.1493 8.60039 32.9224 8.12198 32.4832 7.96482V7.96497Z" fill="#2A1449"/>
<path opacity="0.3" d="M16.6044 21.0538C15.407 20.0809 13.6232 20.2554 12.5245 21.3352L12.2113 21.6432L11.9 21.3367C10.8016 20.2558 9.01699 20.0805 7.81882 21.0535C6.44453 22.1696 6.37242 24.1742 7.60203 25.3835L11.5919 29.307C11.9339 29.6432 12.4885 29.6432 12.8306 29.307L16.8203 25.3836C18.0504 24.1743 17.9783 22.1697 16.6044 21.0538Z" fill="#2A1449"/>
<path d="M32.8732 7.1643L13.1418 0.10269C12.71 -0.0514866 12.246 -0.0314876 11.8319 0.158857C11.4169 0.348776 11.1026 0.68663 10.947 1.10916L9.42672 5.21689L6.94527 4.7867C6.01481 4.62302 5.12487 5.23887 4.9626 6.15258L4.27661 9.97507H1.71223C0.768203 9.97507 0 10.7305 0 11.6588V38.3158C0 39.2446 0.768203 40 1.71223 40H22.7105C23.6545 40 24.4227 39.2446 24.4227 38.3158V35.7571C24.4427 35.7062 24.4702 35.6592 24.4802 35.6032L24.7726 33.9728L33.8967 9.32263C34.2195 8.45047 33.7606 7.48216 32.8732 7.1643ZM22.6919 38.298L1.73084 38.3158L1.71223 11.6771L22.6919 11.6588V38.298ZM24.4227 26.1267V11.6588C24.4227 10.7305 23.6545 9.97507 22.7105 9.97507H6.02995L6.64526 6.46292L27.3097 10.0274L24.4227 26.1267ZM26.5029 24.3232L29.0135 10.3229C29.0929 9.8799 28.9924 9.43326 28.7303 9.06505C28.4675 8.69642 28.0753 8.45047 27.6249 8.37232L11.1537 5.5163L12.5494 1.70204L32.2706 8.74081L26.5029 24.3231V24.3232ZM6.99013 25.9853L10.9791 29.9079C11.3079 30.232 11.7456 30.4107 12.2105 30.4107C12.6754 30.4107 13.114 30.232 13.4418 29.9088L17.4317 25.9857C18.1949 25.2353 18.6039 24.1963 18.5524 23.1355C18.5016 22.0754 17.9921 21.0777 17.1553 20.3979C15.7508 19.2573 13.6523 19.3092 12.2113 20.4677C10.7713 19.3088 8.67193 19.2568 7.26735 20.3975C6.43064 21.0773 5.92105 22.075 5.86956 23.1351C5.81879 24.196 6.22712 25.2348 6.99028 25.9853H6.99013ZM8.36932 21.7098C8.73612 21.4123 9.19248 21.2664 9.65735 21.2664C10.2405 21.2664 10.8372 21.495 11.2877 21.9391L11.5995 22.2455C11.9376 22.577 12.486 22.5778 12.8241 22.2446L13.1359 21.9371C13.9464 21.1397 15.2285 21.0396 16.0534 21.7102C16.5216 22.0909 16.7953 22.6256 16.824 23.2161C16.852 23.7992 16.6271 24.3696 16.208 24.7822L12.2037 28.7053L8.21383 24.7818C7.79468 24.3696 7.57068 23.7987 7.59852 23.2156C7.62722 22.6252 7.90113 22.0905 8.36932 21.7098Z" fill="white"/>
</g>
<defs>
<clipPath id="clip0_19_75">
<rect width="34" height="40" fill="white"/>
</clipPath>
</defs>
</svg>
